<svg width="28" height="28" viewBox="0 0 28 28" fill="none" xmlns="http://www.w3.org/2000/svg">
<path d="M2 5C2 4.20435 2.31607 3.44129 2.87868 2.87868C3.44129 2.31607 4.20435 2 5 2H7C7.26522 2 7.51957 1.89464 7.70711 1.70711C7.89464 1.51957 8 1.26522 8 1C8 0.734784 7.89464 0.48043 7.70711 0.292893C7.51957 0.105357 7.26522 0 7 0H5C3.67392 0 2.40215 0.526784 1.46447 1.46447C0.526784 2.40215 0 3.67392 0 5V7C0 7.26522 0.105357 7.51957 0.292893 7.70711C0.48043 7.89464 0.734784 8 1 8C1.26522 8 1.51957 7.89464 1.70711 7.70711C1.89464 7.51957 2 7.26522 2 7V5ZM4.322 25.924C4.542 25.9747 4.768 26 5 26H7C7.26522 26 7.51957 26.1054 7.70711 26.2929C7.89464 26.4804 8 26.7348 8 27C8 27.2652 7.89464 27.5196 7.70711 27.7071C7.51957 27.8946 7.26522 28 7 28H5C3.67392 28 2.40215 27.4732 1.46447 26.5355C0.526784 25.5979 0 24.3261 0 23V21C0 20.7348 0.105357 20.4804 0.292893 20.2929C0.48043 20.1054 0.734784 20 1 20C1.26522 20 1.51957 20.1054 1.70711 20.2929C1.89464 20.4804 2 20.7348 2 21V23C1.99963 23.6781 2.22899 24.3363 2.65067 24.8673C3.07235 25.3983 3.66147 25.7708 4.322 25.924ZM23 2C23.7956 2 24.5587 2.31607 25.1213 2.87868C25.6839 3.44129 26 4.20435 26 5V7C26 7.26522 26.1054 7.51957 26.2929 7.70711C26.4804 7.89464 26.7348 8 27 8C27.2652 8 27.5196 7.89464 27.7071 7.70711C27.8946 7.51957 28 7.26522 28 7V5C28 3.67392 27.4732 2.40215 26.5355 1.46447C25.5979 0.526784 24.3261 0 23 0H21C20.7348 0 20.4804 0.105357 20.2929 0.292893C20.1054 0.48043 20 0.734784 20 1C20 1.26522 20.1054 1.51957 20.2929 1.70711C20.4804 1.89464 20.7348 2 21 2H23ZM23.678 25.924C23.4556 25.975 23.2282 26.0005 23 26H21C20.7348 26 20.4804 26.1054 20.2929 26.2929C20.1054 26.4804 20 26.7348 20 27C20 27.2652 20.1054 27.5196 20.2929 27.7071C20.4804 27.8946 20.7348 28 21 28H23C24.3261 28 25.5979 27.4732 26.5355 26.5355C27.4732 25.5979 28 24.3261 28 23V21C28 20.7348 27.8946 20.4804 27.7071 20.2929C27.5196 20.1054 27.2652 20 27 20C26.7348 20 26.4804 20.1054 26.2929 20.2929C26.1054 20.4804 26 20.7348 26 21V23C26.0004 23.6781 25.771 24.3363 25.3493 24.8673C24.9277 25.3983 24.3385 25.7708 23.678 25.924ZM5 24C4.73478 24 4.48043 23.8946 4.29289 23.7071C4.10536 23.5196 4 23.2652 4 23C4 22.2044 4.31607 21.4413 4.87868 20.8787C5.44129 20.3161 6.20435 20 7 20H21C21.7956 20 22.5587 20.3161 23.1213 20.8787C23.6839 21.4413 24 22.2044 24 23C24 23.2652 23.8946 23.5196 23.7071 23.7071C23.5196 23.8946 23.2652 24 23 24H22V23C22 22.7348 21.8946 22.4804 21.7071 22.2929C21.5196 22.1054 21.2652 22 21 22H7C6.73478 22 6.48043 22.1054 6.29289 22.2929C6.10536 22.4804 6 22.7348 6 23V24H5ZM19.5 11.5C19.5 10.0413 18.9205 8.64236 17.8891 7.61091C16.8576 6.57946 15.4587 6 14 6C12.5413 6 11.1424 6.57946 10.1109 7.61091C9.07946 8.64236 8.5 10.0413 8.5 11.5C8.5 12.9587 9.07946 14.3576 10.1109 15.3891C11.1424 16.4205 12.5413 17 14 17C15.4587 17 16.8576 16.4205 17.8891 15.3891C18.9205 14.3576 19.5 12.9587 19.5 11.5ZM10.5 11.5C10.5 10.5717 10.8687 9.6815 11.5251 9.02513C12.1815 8.36875 13.0717 8 14 8C14.9283 8 15.8185 8.36875 16.4749 9.02513C17.1313 9.6815 17.5 10.5717 17.5 11.5C17.5 12.4283 17.1313 13.3185 16.4749 13.9749C15.8185 14.6313 14.9283 15 14 15C13.0717 15 12.1815 14.6313 11.5251 13.9749C10.8687 13.3185 10.5 12.4283 10.5 11.5Z" fill="white"/>
</svg>
