<svg width="20" height="20" viewBox="0 0 20 20" fill="none" xmlns="http://www.w3.org/2000/svg">
<g clip-path="url(#clip0_483_683)">
<path d="M8.67239 4.63332L3.3335 9.99999L8.67239 15.3667C8.7206 15.43 8.78186 15.4822 8.85201 15.5198C8.92217 15.5574 8.99958 15.5794 9.079 15.5845C9.15843 15.5896 9.23802 15.5775 9.31238 15.5492C9.38674 15.5208 9.45414 15.4768 9.51001 15.4201C9.56588 15.3634 9.60893 15.2954 9.63623 15.2206C9.66353 15.1459 9.67445 15.0661 9.66824 14.9868C9.66204 14.9074 9.63886 14.8304 9.60028 14.7607C9.5617 14.6911 9.50861 14.6306 9.44461 14.5833L5.45016 10.5555H16.0779C16.2253 10.5555 16.3666 10.497 16.4708 10.3928C16.575 10.2886 16.6335 10.1473 16.6335 9.99999C16.6335 9.85265 16.575 9.71134 16.4708 9.60715C16.3666 9.50296 16.2253 9.44443 16.0779 9.44443H5.45016L9.44461 5.41665C9.54848 5.31204 9.60655 5.17045 9.60603 5.02302C9.60551 4.8756 9.54644 4.73442 9.44183 4.63054C9.33722 4.52667 9.19562 4.4686 9.0482 4.46912C8.90077 4.46964 8.75959 4.52871 8.65572 4.63332H8.67239Z" fill="black"/>
</g>
<defs>
<clipPath id="clip0_483_683">
<rect width="20" height="20" fill="white" transform="matrix(0 -1 1 0 0 20)"/>
</clipPath>
</defs>
</svg>
