<svg width="40" height="40" viewBox="0 0 40 40" fill="none" xmlns="http://www.w3.org/2000/svg">
<path d="M0 6.875C0 4.46 1.96 2.5 4.375 2.5H12.5C13.875 2.5 15.175 3.15 16 4.25L18.25 7.25C18.3082 7.32762 18.3837 7.39062 18.4705 7.43402C18.5573 7.47741 18.653 7.5 18.75 7.5H35.625C38.04 7.5 40 9.46 40 11.875V33.125C40 34.2853 39.5391 35.3981 38.7186 36.2186C37.8981 37.0391 36.7853 37.5 35.625 37.5H4.375C3.21468 37.5 2.10188 37.0391 1.28141 36.2186C0.460936 35.3981 0 34.2853 0 33.125L0 6.875ZM4.375 6.25C4.20924 6.25 4.05027 6.31585 3.93306 6.43306C3.81585 6.55027 3.75 6.70924 3.75 6.875V33.125C3.75 33.47 4.03 33.75 4.375 33.75H35.625C35.7908 33.75 35.9497 33.6842 36.0669 33.5669C36.1842 33.4497 36.25 33.2908 36.25 33.125V11.875C36.25 11.7092 36.1842 11.5503 36.0669 11.4331C35.9497 11.3158 35.7908 11.25 35.625 11.25H18.75C17.375 11.25 16.075 10.6 15.25 9.5L13 6.5C12.9418 6.42238 12.8663 6.35938 12.7795 6.31598C12.6927 6.27259 12.597 6.25 12.5 6.25H4.375Z" fill="white"/>
</svg>
