<svg width="22" height="22" viewBox="0 0 22 22" fill="none" xmlns="http://www.w3.org/2000/svg">
<path d="M6.25403 15.596C6.16295 15.5017 6.11256 15.3754 6.1137 15.2443C6.11484 15.1132 6.16742 14.9878 6.26012 14.8951C6.35283 14.8024 6.47823 14.7498 6.60933 14.7487C6.74043 14.7476 6.86673 14.798 6.96103 14.889C7.73022 15.6582 8.71021 16.182 9.77708 16.3942C10.844 16.6064 11.9498 16.4975 12.9548 16.0812C13.9597 15.6649 14.8187 14.96 15.4231 14.0556C16.0274 13.1511 16.35 12.0878 16.35 11C16.3559 10.8714 16.4112 10.7501 16.5043 10.6612C16.5974 10.5723 16.7213 10.5228 16.85 10.5229C16.9788 10.523 17.1025 10.5728 17.1954 10.6619C17.2884 10.7509 17.3434 10.8724 17.349 11.001C17.349 12.2866 16.9677 13.5432 16.2535 14.612C15.5392 15.6809 14.5241 16.514 13.3364 17.0059C12.1488 17.4978 10.8419 17.6265 9.58105 17.3758C8.32023 17.125 7.16207 16.506 6.25303 15.597" fill="#646464"/>
<path d="M14.131 13.416C14.0207 13.4896 13.8856 13.5164 13.7556 13.4904C13.6255 13.4644 13.5111 13.3878 13.4375 13.2775C13.3639 13.1672 13.3372 13.0321 13.3631 12.9021C13.3891 12.772 13.4657 12.6576 13.576 12.584L16.576 10.584C16.6306 10.5476 16.6919 10.5222 16.7563 10.5095C16.8208 10.4967 16.8871 10.4968 16.9515 10.5096C17.0159 10.5225 17.0771 10.5479 17.1317 10.5844C17.1862 10.621 17.2331 10.6679 17.2695 10.7225C17.306 10.7771 17.3313 10.8384 17.344 10.9028C17.3568 10.9672 17.3568 11.0335 17.3439 11.0979C17.331 11.1623 17.3056 11.2236 17.2691 11.2781C17.2326 11.3327 17.1856 11.3796 17.131 11.416L14.131 13.416Z" fill="#646464"/>
<path d="M19.266 13.723C19.3047 13.7776 19.3321 13.8394 19.3464 13.9047C19.3608 13.97 19.362 14.0376 19.3498 14.1034C19.3376 14.1691 19.3123 14.2318 19.2755 14.2876C19.2386 14.3435 19.1909 14.3913 19.1353 14.4284C19.0796 14.4655 19.017 14.491 18.9513 14.5035C18.8856 14.5159 18.818 14.5151 18.7526 14.501C18.6872 14.4869 18.6254 14.4598 18.5706 14.4213C18.5159 14.3828 18.4694 14.3338 18.434 14.277L16.434 11.277C16.3651 11.1667 16.342 11.0339 16.3694 10.9067C16.3969 10.7796 16.4728 10.6681 16.581 10.5961C16.6893 10.524 16.8214 10.4969 16.9493 10.5206C17.0772 10.5443 17.1908 10.6169 17.266 10.723L19.266 13.723ZM15.354 6.20503C15.4478 6.29892 15.5004 6.4262 15.5003 6.55888C15.5002 6.69157 15.4474 6.81878 15.3535 6.91253C15.307 6.95895 15.2519 6.99576 15.1911 7.02086C15.1304 7.04596 15.0654 7.05885 14.9997 7.05881C14.867 7.05871 14.7398 7.00592 14.646 6.91203C13.8768 6.14282 12.8967 5.619 11.8297 5.40683C10.7628 5.19466 9.65684 5.30366 8.65182 5.72005C7.64681 6.13644 6.78785 6.84152 6.18358 7.74611C5.5793 8.6507 5.25686 9.71417 5.25702 10.802C5.25689 10.9346 5.20408 11.0618 5.11022 11.1554C5.01636 11.2491 4.88913 11.3017 4.75652 11.3015C4.62391 11.3014 4.49679 11.2486 4.40311 11.1547C4.30944 11.0609 4.25689 10.9336 4.25702 10.801C4.2569 9.5153 4.63809 8.25842 5.35237 7.18936C6.06665 6.12029 7.08194 5.28708 8.26982 4.7951C9.4577 4.30312 10.7648 4.17448 12.0258 4.42545C13.2868 4.67642 14.445 5.29572 15.354 6.20503Z" fill="#646464"/>
<path d="M7.47604 8.38503C7.53067 8.34859 7.59194 8.32326 7.65636 8.3105C7.72078 8.29774 7.78708 8.29779 7.85148 8.31065C7.91587 8.32351 7.97711 8.34893 8.03168 8.38545C8.08625 8.42198 8.1331 8.4689 8.16954 8.52353C8.20598 8.57816 8.23131 8.63943 8.24407 8.70385C8.25683 8.76826 8.25678 8.83456 8.24392 8.89896C8.23106 8.96336 8.20564 9.02459 8.16911 9.07917C8.13259 9.13374 8.08567 9.18058 8.03104 9.21703L5.03104 11.217C4.97641 11.2535 4.91514 11.2788 4.85072 11.2916C4.7863 11.3043 4.72 11.3043 4.65561 11.2914C4.59121 11.2785 4.52998 11.2531 4.4754 11.2166C4.42083 11.1801 4.37398 11.1332 4.33754 11.0785C4.3011 11.0239 4.27577 10.9626 4.26301 10.8982C4.25025 10.8338 4.2503 10.7675 4.26316 10.7031C4.27602 10.6387 4.30144 10.5775 4.33797 10.5229C4.37449 10.4683 4.42141 10.4215 4.47604 10.385L7.47604 8.38503Z" fill="#646464"/>
<path d="M2.34103 8.07802C2.30234 8.02345 2.27499 7.96167 2.2606 7.89634C2.24621 7.83102 2.24508 7.76346 2.25728 7.69769C2.26947 7.63191 2.29474 7.56925 2.33158 7.51342C2.36843 7.45759 2.4161 7.40972 2.47178 7.37264C2.52746 7.33556 2.59002 7.31004 2.65574 7.29757C2.72146 7.28511 2.78902 7.28596 2.85441 7.30008C2.9198 7.31419 2.98169 7.34129 3.03642 7.37975C3.09115 7.41822 3.1376 7.46728 3.17303 7.52402L5.17303 10.524C5.24191 10.6344 5.26509 10.7672 5.23764 10.8943C5.2102 11.0215 5.13428 11.1329 5.02602 11.205C4.91776 11.2771 4.78566 11.3042 4.65777 11.2804C4.52988 11.2567 4.41626 11.1841 4.34103 11.078L2.34103 8.07802Z" fill="#646464"/>
</svg>
