<svg width="22" height="22" viewBox="0 0 22 22" fill="none" xmlns="http://www.w3.org/2000/svg">
<path d="M1.83331 5.5H5.49998M1.83331 11.9167H5.49998M1.83331 19.25H19.25M17.7833 12.2833L20.1666 14.6667M18.975 8.1125C18.975 7.40829 18.8363 6.71097 18.5668 6.06036C18.2973 5.40975 17.9023 4.81859 17.4043 4.32064C16.9064 3.82269 16.3152 3.42769 15.6646 3.1582C15.014 2.88871 14.3167 2.75 13.6125 2.75C12.9083 2.75 12.2109 2.88871 11.5603 3.1582C10.9097 3.42769 10.3186 3.82269 9.82062 4.32064C9.32267 4.81859 8.92767 5.40975 8.65818 6.06036C8.38869 6.71097 8.24998 7.40829 8.24998 8.1125C8.24998 9.53472 8.81496 10.8987 9.82062 11.9044C10.8263 12.91 12.1903 13.475 13.6125 13.475C15.0347 13.475 16.3987 12.91 17.4043 11.9044C18.41 10.8987 18.975 9.53472 18.975 8.1125Z" stroke="black" stroke-width="1.5" stroke-linecap="round" stroke-linejoin="round"/>
</svg>
