<svg width="24" height="24" viewBox="0 0 24 24" fill="none" xmlns="http://www.w3.org/2000/svg">
<path d="M12 4.5C11.348 4.5 10.792 4.916 10.585 5.5C10.5533 5.59436 10.5032 5.68148 10.4376 5.75629C10.3719 5.83109 10.292 5.89208 10.2026 5.93571C10.1131 5.97933 10.0159 6.00471 9.91652 6.01037C9.81715 6.01603 9.71765 6.00186 9.62382 5.96868C9.52999 5.9355 9.4437 5.88398 9.36998 5.81711C9.29626 5.75025 9.23659 5.66938 9.19444 5.57922C9.15229 5.48906 9.1285 5.39141 9.12447 5.29197C9.12044 5.19253 9.13624 5.09327 9.17095 5C9.32778 4.55656 9.58668 4.15621 9.92675 3.83126C10.2668 3.50632 10.6785 3.26589 11.1286 3.12939C11.5788 2.99288 12.0547 2.96413 12.5179 3.04545C12.9812 3.12677 13.4189 3.31588 13.7956 3.59751C14.1723 3.87915 14.4775 4.24542 14.6866 4.66675C14.8957 5.08809 15.0028 5.55268 14.9992 6.02302C14.9956 6.49336 14.8815 6.95628 14.6661 7.37439C14.4506 7.79251 14.1399 8.15411 13.759 8.43C13.458 8.649 13.191 8.868 13.002 9.097C12.816 9.323 12.75 9.504 12.75 9.66C12.75 9.77887 12.7822 9.89552 12.8431 9.99761C12.904 10.0997 12.9914 10.1834 13.096 10.24L20.703 14.352C21.1868 14.6138 21.5696 15.0295 21.7906 15.5333C22.0117 16.0371 22.0584 16.6002 21.9235 17.1336C21.7886 17.6669 21.4796 18.1401 21.0456 18.4781C20.6115 18.8161 20.0771 18.9998 19.527 19H4.47295C3.92279 18.9998 3.3884 18.8161 2.95435 18.4781C2.52029 18.1401 2.21135 17.6669 2.0764 17.1336C1.94146 16.6002 1.98822 16.0371 2.20928 15.5333C2.43034 15.0295 2.81309 14.6138 3.29695 14.352L9.39695 11.054C9.48362 11.0072 9.57867 10.9779 9.67666 10.9678C9.77465 10.9577 9.87367 10.967 9.96806 10.9952C10.0624 11.0234 10.1504 11.0699 10.2268 11.1321C10.3032 11.1942 10.3666 11.2708 10.4135 11.3575C10.4603 11.4442 10.4896 11.5392 10.4996 11.6372C10.5097 11.7352 10.5004 11.8342 10.4722 11.9286C10.444 12.023 10.3975 12.1109 10.3354 12.1873C10.2732 12.2638 10.1966 12.3272 10.11 12.374L4.00995 15.671C3.81942 15.774 3.66869 15.9375 3.58163 16.1358C3.49457 16.3342 3.47615 16.5558 3.5293 16.7658C3.58245 16.9757 3.70412 17.1619 3.87504 17.2949C4.04597 17.4279 4.25638 17.5001 4.47295 17.5H19.527C19.7435 17.5001 19.9539 17.4279 20.1249 17.2949C20.2958 17.1619 20.4175 16.9757 20.4706 16.7658C20.5238 16.5558 20.5053 16.3342 20.4183 16.1358C20.3312 15.9375 20.1805 15.774 19.99 15.671L12.383 11.559C12.0404 11.3738 11.7542 11.0995 11.5548 10.7651C11.3553 10.4306 11.25 10.0484 11.25 9.659C11.25 9.036 11.528 8.528 11.844 8.144C12.158 7.764 12.551 7.454 12.879 7.216C13.1361 7.03028 13.3277 6.76783 13.4264 6.46636C13.525 6.16488 13.5255 5.83991 13.4278 5.53813C13.3301 5.23635 13.1393 4.97329 12.8828 4.78677C12.6262 4.60024 12.3171 4.49984 12 4.5Z" fill="#9747FF"/>
</svg>
