<svg width="20" height="20" viewBox="0 0 20 20" fill="none" xmlns="http://www.w3.org/2000/svg">
<path d="M17.4999 17.5L13.8808 13.8808M13.8808 13.8808C14.4998 13.2617 14.9909 12.5268 15.3259 11.7179C15.661 10.9091 15.8334 10.0422 15.8334 9.16666C15.8334 8.29115 15.661 7.42422 15.326 6.61537C14.9909 5.80651 14.4998 5.07156 13.8808 4.45249C13.2617 3.83342 12.5267 3.34234 11.7179 3.0073C10.909 2.67226 10.0421 2.49982 9.16659 2.49982C8.29109 2.49982 7.42416 2.67226 6.61531 3.0073C5.80645 3.34234 5.0715 3.83342 4.45243 4.45249C3.20215 5.70276 2.49976 7.3985 2.49976 9.16666C2.49976 10.9348 3.20215 12.6305 4.45243 13.8808C5.7027 15.1311 7.39844 15.8335 9.16659 15.8335C10.9347 15.8335 12.6305 15.1311 13.8808 13.8808Z" stroke="black" stroke-linecap="round" stroke-linejoin="round"/>
</svg>
